<?xml version="1.0" standalone="no"?>
<!DOCTYPE svg PUBLIC "-//W3C//DTD SVG 20010904//EN"
 "http://www.w3.org/TR/2001/REC-SVG-20010904/DTD/svg10.dtd">
<svg version="1.0" xmlns="http://www.w3.org/2000/svg"
 width="102.000000pt" height="102.000000pt" viewBox="0 0 102.000000 102.000000"
 preserveAspectRatio="xMidYMid meet">
<metadata>
Created by potrace 1.11, written by Peter Selinger 2001-2013
</metadata>
<g transform="translate(0.000000,102.000000) scale(0.100000,-0.100000)"
fill="#000000" stroke="none">
<path d="M435 912 c-98 -46 -146 -155 -111 -253 l13 -36 -46 -12 c-92 -24
-151 -101 -151 -194 0 -189 205 -274 341 -141 35 34 37 35 50 17 65 -90 213
-101 295 -22 120 117 59 313 -107 344 -36 7 -37 7 -23 33 22 42 18 122 -9 173
-48 91 -163 133 -252 91z m145 -54 c75 -51 97 -122 62 -201 -15 -34 -31 -51
-61 -67 l-41 -20 0 79 c0 57 -4 82 -15 91 -26 21 -35 0 -35 -81 0 -72 -2 -79
-20 -79 -31 0 -89 57 -100 101 -35 130 106 248 210 177z m-183 -308 c62 -28
85 -70 81 -147 -3 -49 -9 -68 -28 -89 -39 -41 -78 -57 -128 -51 -156 17 -180
237 -32 296 37 15 60 13 107 -9z m379 -11 c26 -16 64 -71 64 -93 0 -3 -37 -6
-82 -8 -75 -3 -83 -5 -83 -23 0 -18 8 -20 83 -23 45 -2 82 -6 82 -10 0 -4 -9
-22 -20 -40 -80 -131 -280 -74 -280 81 0 41 5 53 38 88 56 60 128 70 198 28z"/>
</g>
</svg>
